<?xml version="1.0" encoding="utf-8"?>
<!-- Generator: Adobe Illustrator 23.0.1, SVG Export Plug-In . SVG Version: 6.00 Build 0)  -->
<svg version="1.1" xmlns="http://www.w3.org/2000/svg" xmlns:xlink="http://www.w3.org/1999/xlink" x="0px" y="0px"
	 viewBox="0 0 343 354.8" style="enable-background:new 0 0 343 354.8;" xml:space="preserve">
<style type="text/css">
	.st0{fill:#1DA1F2;}
	.st1{fill:none;stroke:#000000;stroke-width:1.5516;stroke-miterlimit:10;}
	.st2{fill:#F26E5A;}
	.st3{fill:#E5E5E5;}
	.st4{fill:none;stroke:#DB5749;stroke-width:1.5;stroke-miterlimit:10;}
	.st5{fill:none;stroke:#FCE7E4;stroke-width:1.5516;stroke-miterlimit:10;}
	.st6{fill:#DB5749;}
	.st7{fill:none;stroke:#000000;stroke-width:1.2385;stroke-linecap:round;stroke-linejoin:round;stroke-miterlimit:10;}
	.st8{fill:#E5E5E5;stroke:#000000;stroke-miterlimit:10;}
	.st9{opacity:0.3;}
	.st10{clip-path:url(#SVGID_2_);fill:#1DA1F2;}
	.st11{clip-path:url(#SVGID_2_);fill:#FFFFFF;}
</style>
<g id="BACKGROUND">
</g>
<g id="OBJECTS">
	<g>
		<g>
			<g>
				<path class="st0" d="M219.9,230.8l-0.7-10l-62.5,3.1v9.7c0,0-14.1,13.4-19.6,102.4h112.6C249.5,335.9,261.9,257.1,219.9,230.8z"
					/>
				<g>
					<line class="st1" x1="156.6" y1="233.5" x2="219.9" y2="230.8"/>
					<polyline class="st1" points="169.5,274.5 182.5,279.8 189.4,335.9 					"/>
				</g>
			</g>
			<g>
				<g>
					<g>
						<path class="st2" d="M88.2,211.4l17.3-57l38,14.2l-18.2,54.6c-3.7,11.3-16.6,16.6-27.2,11.2C89.5,230.2,85.4,220.4,88.2,211.4
							z"/>
						<path class="st3" d="M114.8,123.9c3.4-11.1,15.4-17.2,26.4-13.4c10.7,3.7,16.5,15.3,12.9,26l-10.6,32.2l-38-14.2L114.8,123.9z
							"/>
					</g>
					<g>
						<path class="st2" d="M117.5,207.1l-43.4-82.3c0,0,1-14.9-23.7-15.8l0,0c-0.3,0-0.7,0-1,0h-8.3c-1.5,0-2.9,1.1-3.1,2.6
							c-0.2,1.8,1,3.3,2.6,3.5l8.3,1.2l-11.3,3l-2.1,0.8l-15.4-10.2c-1.2-0.9-2.9-0.5-3.7,0.9c-0.6,1-0.3,2.3,0.6,3.1
							c1,0.8,2.5,2.1,4.2,3.6l-3.4-2c-1.3-0.8-3-0.2-3.6,1.1c-0.5,1.1-0.1,2.4,0.8,3c0.8,0.6,1.9,1.3,3,2.1l-1.2-0.5
							c-1.3-0.5-2.8-0.1-3.6,1c-1.1,1.6-0.4,3.7,1.3,4.4l16.9,7.1c2.9,1.2,5.7,2,9.1,1.2l15-3.5l33.6,94.1L117.5,207.1z"/>
						<line class="st4" x1="99.7" y1="173.3" x2="107.8" y2="188.5"/>
					</g>
				</g>
				<g>
					<path class="st3" d="M148.6,109.5l-16.1,1.2c0,0-23.4,31.7,24.1,113.1l62.5-3.1l4.7-87.7l-7.7-24.9h-28L148.6,109.5z"/>
					<path class="st5" d="M130.3,163.6c0,0-4.7-9.8-1.7-31.5"/>
				</g>
				<g>
					<g>
						<path class="st2" d="M275.5,199.9l-26-53.6l-35.3,20l26.5,51.1c5.5,10.6,19,13.8,28.7,6.9
							C277.1,218.7,279.7,208.4,275.5,199.9z"/>
						<g>
							<path class="st3" d="M235.5,117.7c-5.1-10.4-17.9-14.6-28.1-9.2c-10,5.3-13.9,17.6-8.7,27.7l15.5,30.1l35.3-20L235.5,117.7z"
								/>
							<line class="st5" x1="214.2" y1="166.3" x2="201.4" y2="141.4"/>
						</g>
					</g>
					<g>
						<path class="st2" d="M329.7,108.1c-0.8-1.1-2.3-1.5-3.6-1l-7.5,2.9l7.1-6c1.2-1,1.5-2.7,0.6-4c-1-1.4-3-1.7-4.3-0.6l-6.6,5.3
							l5.6-7.3c0.9-1.2,0.9-3-0.3-4c-1.3-1.2-3.3-1-4.3,0.3l-11.1,11.5l-11.3-3l8.3-1.2c1.7-0.2,2.9-1.7,2.6-3.5
							c-0.2-1.5-1.6-2.6-3.1-2.6h-8.3c-4.9,0-9.6,1.7-13.2,4.9c-0.1,0-0.1,0.1-0.2,0.1c-5.1,4-3.2,12.2-3.2,12.2l-31.1,88.1
							l30.8,13.7l17.8-94.6l11.4,0c0.7,0.1,1.4,0.1,2.1,0l0.1,0l0,0c1.2-0.1,2.4-0.4,3.6-0.9l16.9-6
							C330.2,111.8,330.8,109.7,329.7,108.1z"/>
						<line class="st4" x1="257.9" y1="163.6" x2="251.2" y2="187.1"/>
					</g>
				</g>
			</g>
			<g>
				<path d="M147.4,36.9c-1.9,1.3-15,4.7-15.2,7.1c0,0,4.3,16.8-0.1,19.9c-11.9,8.5-15.7,25-15.7,25s31.3,23.5,114.6-1.2
					c0,0,1-10-14.2-17.2c-4.3-2.1-8.2-5.2-10.6-9.4c-1.9-3.3-2.2-4.7-2.7-7.6C202.2,45.2,179.5,14.8,147.4,36.9z"/>
				<path class="st6" d="M148.6,62c0.4,5.5-3.8,10.3-9.3,10.7c-5.5,0.4-10.3-3.8-10.7-9.3c-0.4-5.5,3.8-10.3,9.3-10.7
					C143.5,52.3,148.2,56.5,148.6,62z"/>
				<path class="st2" d="M153.1,86.5l1.4,21.7c0.5,7.6,3.6,12.8,11.1,12.3l0,0c6.4-0.4,14-5.6,14.4-12l-3.8-34.1L153.1,86.5z"/>
				<path class="st2" d="M148.6,109.5l39.4-1.4c0,0-1,19.4-24.4,17.6C147.4,124.5,148.6,109.5,148.6,109.5z"/>
				<polygon class="st6" points="154.3,104.4 179.5,79.7 152.9,84.2 				"/>
				<path class="st2" d="M159.7,90L159.7,90c-12.8,0-23.4-10.1-23.8-20.6l-0.8-24.7c-0.5-13.1,9.5-24.3,22.7-25.2l0,0
					c13.4-0.9,27.4,9,28.4,22.5l0.4,19.9C186.9,77.2,175.1,88.9,159.7,90z"/>
				<g>
					<polyline class="st7" points="149.4,60.7 148.6,66.9 151.8,67 					"/>
					<path d="M162.1,45.7c0,0-7.1-0.6-7.2,2.3c0,0,0,2,6.2,2.3c6.2,0.4,7.8-0.1,8.4-1.9C170,46.6,165.4,45.7,162.1,45.7z"/>
					<path d="M141.5,49.9c0,0,5.4-0.4,5.9,2.2c0,0,0.3,1.8-4.4,2c-4.7,0.3-6.2-0.3-6.2-1.8C136.6,50.6,138.9,49.9,141.5,49.9z"/>
					<path d="M144.6,58.4c0,1.3-0.9,2.3-2.2,2.3c-1.3,0-2.3-0.9-2.3-2.2c0-1.3,0.9-2.3,2.2-2.3C143.5,56.1,144.6,57.1,144.6,58.4z"
						/>
					<path d="M163.7,57.7c0,1.3-0.9,2.3-2.2,2.3c-1.3,0-2.3-0.9-2.3-2.2c0-1.3,0.9-2.3,2.2-2.3C162.6,55.5,163.6,56.5,163.7,57.7z"
						/>
					<path class="st7" d="M157,71.2c0,0-3.4-1.5-7.4,2"/>
				</g>
				<path d="M165.8,15.2c-3.2-0.2-6.4,0.2-9.5,1c-7.7,2-21.5,7.7-23.9,22.5c-0.8,3.9-0.2,5.2-0.2,5.2s25.8,1,41-6.2
					c2.2,9.3,4.2,15,13.4,24.1l8.1-12.2l9.2,8.2C203.9,58.1,203.9,17.3,165.8,15.2z"/>
				<g>
					<path class="st2" d="M199.9,62.1c0.4,5.5-3.8,10.3-9.3,10.7c-5.5,0.4-10.3-3.8-10.7-9.3c-0.4-5.5,3.8-10.3,9.3-10.7
						C194.8,52.4,199.6,56.6,199.9,62.1z"/>
					<path class="st7" d="M186.2,65.6c0,0-0.5-7.2,6.5-6.6"/>
				</g>
			</g>
		</g>
		<line class="st8" x1="15.8" y1="335.9" x2="329.1" y2="335.9"/>
	</g>
	<g class="st9">
		<defs>
			<path id="SVGID_1_" class="st9" d="M179.5,182.4c0,0.8-0.6,1.5-1.4,1.5l-26.4,0.7c-0.8,0-1.5-0.6-1.5-1.4l-0.7-26.4
				c0-0.8,0.6-1.5,1.4-1.5l26.4-0.7c0.8,0,1.5,0.6,1.5,1.4L179.5,182.4z"/>
		</defs>
		<clipPath id="SVGID_2_">
			<use xlink:href="#SVGID_1_"  style="overflow:visible;"/>
		</clipPath>
		<path class="st10" d="M179.5,182.4c0,0.8-0.6,1.5-1.4,1.5l-26.4,0.7c-0.8,0-1.5-0.6-1.5-1.4l-0.7-26.4c0-0.8,0.6-1.5,1.4-1.5
			l26.4-0.7c0.8,0,1.5,0.6,1.5,1.4L179.5,182.4z"/>
		<path class="st11" d="M168.8,163.8c-5.9,0.2-10.5,5-10.3,10.9c0.2,5.9,5,10.5,10.9,10.3c5.9-0.2,10.5-5,10.3-10.9
			C179.6,168.3,174.7,163.7,168.8,163.8z M169.2,178.5c-2.3,0.1-4.2-1.7-4.2-4c-0.1-2.3,1.7-4.2,4-4.2c2.3-0.1,4.2,1.7,4.2,4
			C173.3,176.6,171.5,178.5,169.2,178.5z"/>
		<polygon class="st11" points="164.4,175 158.5,175.1 158.1,161.6 160.9,158.6 164,161.4 		"/>
		<polygon class="st11" points="163.9,160 160.9,157.2 158.1,160.2 158.1,157.8 160.9,154.9 163.9,157.7 		"/>
		<polygon class="st11" points="163.8,156.3 160.8,153.5 158,156.4 158,154.1 160.8,151.1 163.8,153.9 		"/>
	</g>
</g>
<g id="DESIGNED_BY_FREEPIK">
</g>
</svg>