<?xml version="1.0" encoding="utf-8"?>
<!-- Generator: Adobe Illustrator 23.0.1, SVG Export Plug-In . SVG Version: 6.00 Build 0)  -->
<svg version="1.1" id="Layer_1" xmlns="http://www.w3.org/2000/svg" xmlns:xlink="http://www.w3.org/1999/xlink" x="0px" y="0px"
	 viewBox="0 0 512 512" style="enable-background:new 0 0 512 512;" xml:space="preserve">
<g id="Page-1">
	<g transform="translate(-1)">
		<path id="Shape" d="M180.8,258c-13.8,43.5-20.8,88.9-20.9,134.5v110.6c0,4.9,4,8.8,8.8,8.8H257c4.9,0,8.8-4,8.8-8.8V401.9
			c-0.5-82.4,25.7-162.8,74.7-229.1c2.1-2.9,4.3-5.6,6.4-8.4l40.6,40.2c2.3,2.3,5.7,3.1,8.8,2.2c3.1-1,5.5-3.6,6.1-6.8l37-189.4
			c0.6-2.9-0.4-5.9-2.4-8s-5.1-3-8-2.4L239.9,38.9c-3.2,0.7-5.8,3-6.7,6.1c-0.9,3.1-0.1,6.5,2.3,8.8l35.7,35.3
			c-22.7,27.7-42.2,57.7-58.3,89.7C200,204.3,189.3,230.8,180.8,258L180.8,258z"/>
		<path d="M133.9,308.3c3.6-25.6,9.3-50.9,17-75.6c8.8-28.1,19.9-55.5,33.1-81.8c1.9-3.7,3.8-7.3,5.6-10.9
			c-12.7-22.1-27-43.2-42.8-63.1c-1.6-2-3.9-3.2-6.4-3.3s-5,0.8-6.7,2.6l-72.5,60.4c-3.1,3-3.5,7.7-1.1,11.2
			C91.5,197.9,116.3,251.9,133.9,308.3z"/>
	</g>
</g>
</svg>
