<?xml version="1.0" encoding="utf-8"?>
<!-- Generator: Adobe Illustrator 23.0.1, SVG Export Plug-In . SVG Version: 6.00 Build 0)  -->
<svg version="1.1" id="Layer_1" xmlns="http://www.w3.org/2000/svg" xmlns:xlink="http://www.w3.org/1999/xlink" x="0px" y="0px"
	 viewBox="0 0 512 512" style="enable-background:new 0 0 512 512;" xml:space="preserve">
<style type="text/css">
	.st0{fill:#FFFFFF;}
	.st1{opacity:0.23;}
</style>
<path id="Shape" class="st0" d="M143.9,212.3c1.8,2.7,5,4.2,8.2,3.9c3.2-0.3,6.1-2.4,7.3-5.4l22-52.7
	c75.2,41.8,189.4,135.9,189.4,318.6v26.5c0,4.9,4,8.8,8.8,8.8h88.3c4.9,0,8.8-4,8.8-8.8v-26.5c1.5-108.3-36.1-213.4-105.9-296.2
	C329.6,131,279.2,89.9,222.5,59.4l19.3-46.3c1.3-3,0.8-6.4-1.3-9c-2.1-2.5-5.3-3.7-8.5-3L42.5,38c-2.9,0.6-5.3,2.6-6.4,5.3
	c-1.1,2.7-0.8,5.8,0.8,8.3L143.9,212.3z"/>
<path class="st1" d="M476.7,343.1V8.8c0-4.9-4-8.8-8.8-8.8h-88.3c-4.9,0-8.8,4-8.8,8.8v144.9c4.6,5.1,9.1,10.2,13.5,15.5
	C427.3,219.8,458.8,279.2,476.7,343.1L476.7,343.1z"/>
</svg>
